<svg xmlns="http://www.w3.org/2000/svg" viewBox="0 0 24 24" height="18" width="18"><g><path d="M12,4.64A7.36,7.36,0,1,0,19.36,12,7.37,7.37,0,0,0,12,4.64Zm0,12.72A5.36,5.36,0,1,1,17.36,12,5.37,5.37,0,0,1,12,17.36Z" style="fill: currentColor"></path><path d="M12,3.47a1,1,0,0,0,1-1V1a1,1,0,0,0-2,0V2.47A1,1,0,0,0,12,3.47Z" style="fill: currentColor"></path><path d="M4.55,6a1,1,0,0,0,.71.29A1,1,0,0,0,6,6,1,1,0,0,0,6,4.55l-1-1A1,1,0,0,0,3.51,4.93Z" style="fill: currentColor"></path><path d="M2.47,11H1a1,1,0,0,0,0,2H2.47a1,1,0,1,0,0-2Z" style="fill: currentColor"></path><path d="M4.55,18l-1,1a1,1,0,0,0,0,1.42,1,1,0,0,0,.71.29,1,1,0,0,0,.71-.29l1-1A1,1,0,0,0,4.55,18Z" style="fill: currentColor"></path><path d="M12,20.53a1,1,0,0,0-1,1V23a1,1,0,0,0,2,0V21.53A1,1,0,0,0,12,20.53Z" style="fill: currentColor"></path><path d="M19.45,18A1,1,0,0,0,18,19.45l1,1a1,1,0,0,0,.71.29,1,1,0,0,0,.71-.29,1,1,0,0,0,0-1.42Z" style="fill: currentColor"></path><path d="M23,11H21.53a1,1,0,0,0,0,2H23a1,1,0,0,0,0-2Z" style="fill: currentColor"></path><path d="M18.74,6.26A1,1,0,0,0,19.45,6l1-1a1,1,0,1,0-1.42-1.42l-1,1A1,1,0,0,0,18,6,1,1,0,0,0,18.74,6.26Z" style="fill: currentColor"></path></g></svg>